<mxfile host="app.diagrams.net" modified="2024-07-06T02:57:52.224Z" agent="Mozilla/5.0 (Windows NT 10.0; Win64; x64) AppleWebKit/537.36 (KHTML, like Gecko) Chrome/126.0.0.0 Safari/537.36" etag="SuHoRySGn0wuop5eIkEZ" version="24.6.4" type="github" pages="2">
  <diagram name="Page-1" id="LckPgGuNKx3er_0MUJO8">
    <mxGraphModel dx="1674" dy="772" grid="1" gridSize="10" guides="1" tooltips="1" connect="1" arrows="1" fold="1" page="1" pageScale="1" pageWidth="850" pageHeight="1100" math="0" shadow="0">
      <root>
        <mxCell id="0" />
        <mxCell id="1" parent="0" />
        <mxCell id="ST3ynC30ayqtAyNjZGW3-1" value="UART Tx" style="whiteSpace=wrap;html=1;aspect=fixed;shadow=1;" vertex="1" parent="1">
          <mxGeometry x="170" y="60" width="150" height="150" as="geometry" />
        </mxCell>
        <mxCell id="ST3ynC30ayqtAyNjZGW3-2" value="UART Rx" style="whiteSpace=wrap;html=1;aspect=fixed;" vertex="1" parent="1">
          <mxGeometry x="500" y="60" width="150" height="150" as="geometry" />
        </mxCell>
        <mxCell id="ST3ynC30ayqtAyNjZGW3-4" value="" style="triangle;whiteSpace=wrap;html=1;shadow=1;" vertex="1" parent="1">
          <mxGeometry x="170" y="190" width="10" height="20" as="geometry" />
        </mxCell>
        <mxCell id="ST3ynC30ayqtAyNjZGW3-5" value="" style="triangle;whiteSpace=wrap;html=1;shadow=1;" vertex="1" parent="1">
          <mxGeometry x="500" y="190" width="10" height="20" as="geometry" />
        </mxCell>
        <mxCell id="ST3ynC30ayqtAyNjZGW3-6" value="" style="endArrow=classic;html=1;rounded=0;shadow=1;" edge="1" parent="1">
          <mxGeometry width="50" height="50" relative="1" as="geometry">
            <mxPoint x="440" y="199.64999999999998" as="sourcePoint" />
            <mxPoint x="500" y="199.30999999999995" as="targetPoint" />
          </mxGeometry>
        </mxCell>
        <mxCell id="ST3ynC30ayqtAyNjZGW3-7" value="" style="endArrow=classic;html=1;rounded=0;" edge="1" parent="1">
          <mxGeometry width="50" height="50" relative="1" as="geometry">
            <mxPoint x="110" y="200" as="sourcePoint" />
            <mxPoint x="170" y="199.65999999999997" as="targetPoint" />
          </mxGeometry>
        </mxCell>
        <mxCell id="ST3ynC30ayqtAyNjZGW3-8" value="" style="endArrow=classic;html=1;rounded=0;" edge="1" parent="1">
          <mxGeometry width="50" height="50" relative="1" as="geometry">
            <mxPoint x="650" y="140" as="sourcePoint" />
            <mxPoint x="740" y="140" as="targetPoint" />
          </mxGeometry>
        </mxCell>
        <mxCell id="ST3ynC30ayqtAyNjZGW3-9" value="data_out [7:0]" style="text;strokeColor=none;align=center;fillColor=none;html=1;verticalAlign=middle;whiteSpace=wrap;rounded=0;" vertex="1" parent="1">
          <mxGeometry x="635" y="110" width="120" height="30" as="geometry" />
        </mxCell>
        <mxCell id="ST3ynC30ayqtAyNjZGW3-10" value="" style="endArrow=classic;html=1;rounded=0;" edge="1" parent="1">
          <mxGeometry width="50" height="50" relative="1" as="geometry">
            <mxPoint x="80" y="110" as="sourcePoint" />
            <mxPoint x="170" y="110" as="targetPoint" />
          </mxGeometry>
        </mxCell>
        <mxCell id="ST3ynC30ayqtAyNjZGW3-11" value="data_in [7:0]" style="text;strokeColor=none;align=center;fillColor=none;html=1;verticalAlign=middle;whiteSpace=wrap;rounded=0;" vertex="1" parent="1">
          <mxGeometry x="60" y="80" width="110" height="30" as="geometry" />
        </mxCell>
        <mxCell id="ST3ynC30ayqtAyNjZGW3-12" value="clk" style="text;strokeColor=none;align=center;fillColor=none;html=1;verticalAlign=middle;whiteSpace=wrap;rounded=0;" vertex="1" parent="1">
          <mxGeometry x="90" y="200" width="60" height="30" as="geometry" />
        </mxCell>
        <mxCell id="ST3ynC30ayqtAyNjZGW3-13" value="clk" style="text;strokeColor=none;align=center;fillColor=none;html=1;verticalAlign=middle;whiteSpace=wrap;rounded=0;" vertex="1" parent="1">
          <mxGeometry x="430" y="200" width="60" height="30" as="geometry" />
        </mxCell>
        <mxCell id="ST3ynC30ayqtAyNjZGW3-14" value="" style="endArrow=classic;html=1;rounded=0;" edge="1" parent="1">
          <mxGeometry width="50" height="50" relative="1" as="geometry">
            <mxPoint x="80" y="70" as="sourcePoint" />
            <mxPoint x="170" y="70" as="targetPoint" />
          </mxGeometry>
        </mxCell>
        <mxCell id="ST3ynC30ayqtAyNjZGW3-16" value="baud_rate [1:0]" style="text;strokeColor=none;align=center;fillColor=none;html=1;verticalAlign=middle;whiteSpace=wrap;rounded=0;" vertex="1" parent="1">
          <mxGeometry x="65" y="40" width="100" height="30" as="geometry" />
        </mxCell>
        <mxCell id="ST3ynC30ayqtAyNjZGW3-17" value="" style="endArrow=classic;html=1;rounded=0;" edge="1" parent="1">
          <mxGeometry width="50" height="50" relative="1" as="geometry">
            <mxPoint x="80" y="150" as="sourcePoint" />
            <mxPoint x="170" y="150" as="targetPoint" />
          </mxGeometry>
        </mxCell>
        <mxCell id="ST3ynC30ayqtAyNjZGW3-18" value="parity_type [1:0]" style="text;strokeColor=none;align=center;fillColor=none;html=1;verticalAlign=middle;whiteSpace=wrap;rounded=0;" vertex="1" parent="1">
          <mxGeometry x="60" y="120" width="90" height="30" as="geometry" />
        </mxCell>
        <mxCell id="ST3ynC30ayqtAyNjZGW3-19" value="" style="endArrow=classic;html=1;rounded=0;" edge="1" parent="1">
          <mxGeometry width="50" height="50" relative="1" as="geometry">
            <mxPoint x="80" y="179.31" as="sourcePoint" />
            <mxPoint x="170" y="179.31" as="targetPoint" />
          </mxGeometry>
        </mxCell>
        <mxCell id="ST3ynC30ayqtAyNjZGW3-20" value="send" style="text;strokeColor=none;align=center;fillColor=none;html=1;verticalAlign=middle;whiteSpace=wrap;rounded=0;" vertex="1" parent="1">
          <mxGeometry x="50" y="150" width="60" height="30" as="geometry" />
        </mxCell>
        <mxCell id="ST3ynC30ayqtAyNjZGW3-21" value="" style="endArrow=classic;html=1;rounded=0;" edge="1" parent="1">
          <mxGeometry width="50" height="50" relative="1" as="geometry">
            <mxPoint x="244.66000000000003" y="280" as="sourcePoint" />
            <mxPoint x="244.66000000000003" y="210" as="targetPoint" />
          </mxGeometry>
        </mxCell>
        <mxCell id="ST3ynC30ayqtAyNjZGW3-22" value="~rst_n" style="text;strokeColor=none;align=center;fillColor=none;html=1;verticalAlign=middle;whiteSpace=wrap;rounded=0;" vertex="1" parent="1">
          <mxGeometry x="240" y="250" width="60" height="30" as="geometry" />
        </mxCell>
        <mxCell id="ST3ynC30ayqtAyNjZGW3-23" value="" style="endArrow=classic;html=1;rounded=0;entryX=0;entryY=0.5;entryDx=0;entryDy=0;" edge="1" parent="1" target="ST3ynC30ayqtAyNjZGW3-2">
          <mxGeometry width="50" height="50" relative="1" as="geometry">
            <mxPoint x="320" y="134.66" as="sourcePoint" />
            <mxPoint x="380" y="134.66" as="targetPoint" />
          </mxGeometry>
        </mxCell>
        <mxCell id="ST3ynC30ayqtAyNjZGW3-24" value="" style="endArrow=classic;html=1;rounded=0;" edge="1" parent="1">
          <mxGeometry width="50" height="50" relative="1" as="geometry">
            <mxPoint x="420" y="70" as="sourcePoint" />
            <mxPoint x="500" y="70" as="targetPoint" />
          </mxGeometry>
        </mxCell>
        <mxCell id="ST3ynC30ayqtAyNjZGW3-25" value="baud_rate [1:0]" style="text;strokeColor=none;align=center;fillColor=none;html=1;verticalAlign=middle;whiteSpace=wrap;rounded=0;" vertex="1" parent="1">
          <mxGeometry x="400" y="40" width="100" height="30" as="geometry" />
        </mxCell>
        <mxCell id="ST3ynC30ayqtAyNjZGW3-26" value="" style="endArrow=classic;html=1;rounded=0;" edge="1" parent="1">
          <mxGeometry width="50" height="50" relative="1" as="geometry">
            <mxPoint x="420" y="109" as="sourcePoint" />
            <mxPoint x="500" y="109.31" as="targetPoint" />
          </mxGeometry>
        </mxCell>
        <mxCell id="ST3ynC30ayqtAyNjZGW3-27" value="parity_type [1:0]" style="text;strokeColor=none;align=center;fillColor=none;html=1;verticalAlign=middle;whiteSpace=wrap;rounded=0;" vertex="1" parent="1">
          <mxGeometry x="400" y="80" width="90" height="30" as="geometry" />
        </mxCell>
        <mxCell id="ST3ynC30ayqtAyNjZGW3-28" value="data_tx [10:0]" style="text;strokeColor=none;align=center;fillColor=none;html=1;verticalAlign=middle;whiteSpace=wrap;rounded=0;" vertex="1" parent="1">
          <mxGeometry x="390" y="130" width="100" height="30" as="geometry" />
        </mxCell>
        <mxCell id="ST3ynC30ayqtAyNjZGW3-29" value="" style="endArrow=classic;html=1;rounded=0;" edge="1" parent="1">
          <mxGeometry width="50" height="50" relative="1" as="geometry">
            <mxPoint x="574.6600000000001" y="280" as="sourcePoint" />
            <mxPoint x="574.6600000000001" y="210" as="targetPoint" />
          </mxGeometry>
        </mxCell>
        <mxCell id="ST3ynC30ayqtAyNjZGW3-30" value="~rst_n" style="text;strokeColor=none;align=center;fillColor=none;html=1;verticalAlign=middle;whiteSpace=wrap;rounded=0;" vertex="1" parent="1">
          <mxGeometry x="570" y="250" width="60" height="30" as="geometry" />
        </mxCell>
        <mxCell id="ST3ynC30ayqtAyNjZGW3-31" value="" style="endArrow=classic;html=1;rounded=0;" edge="1" parent="1">
          <mxGeometry width="50" height="50" relative="1" as="geometry">
            <mxPoint x="320" y="70" as="sourcePoint" />
            <mxPoint x="380" y="70" as="targetPoint" />
          </mxGeometry>
        </mxCell>
        <mxCell id="ST3ynC30ayqtAyNjZGW3-32" value="" style="endArrow=classic;html=1;rounded=0;" edge="1" parent="1">
          <mxGeometry width="50" height="50" relative="1" as="geometry">
            <mxPoint x="320" y="189.67000000000002" as="sourcePoint" />
            <mxPoint x="380" y="189.67000000000002" as="targetPoint" />
          </mxGeometry>
        </mxCell>
        <mxCell id="ST3ynC30ayqtAyNjZGW3-33" value="tx_active_flag" style="text;strokeColor=none;align=center;fillColor=none;html=1;verticalAlign=middle;whiteSpace=wrap;rounded=0;" vertex="1" parent="1">
          <mxGeometry x="330" y="190" width="60" height="30" as="geometry" />
        </mxCell>
        <mxCell id="ST3ynC30ayqtAyNjZGW3-34" value="tx_done_flag" style="text;strokeColor=none;align=center;fillColor=none;html=1;verticalAlign=middle;whiteSpace=wrap;rounded=0;" vertex="1" parent="1">
          <mxGeometry x="320" y="40" width="70" height="30" as="geometry" />
        </mxCell>
        <mxCell id="ST3ynC30ayqtAyNjZGW3-35" value="" style="endArrow=classic;html=1;rounded=0;" edge="1" parent="1">
          <mxGeometry width="50" height="50" relative="1" as="geometry">
            <mxPoint x="650" y="70" as="sourcePoint" />
            <mxPoint x="740" y="70" as="targetPoint" />
          </mxGeometry>
        </mxCell>
        <mxCell id="ST3ynC30ayqtAyNjZGW3-36" value="rx_done_flag" style="text;strokeColor=none;align=center;fillColor=none;html=1;verticalAlign=middle;whiteSpace=wrap;rounded=0;" vertex="1" parent="1">
          <mxGeometry x="655" y="40" width="90" height="30" as="geometry" />
        </mxCell>
        <mxCell id="ST3ynC30ayqtAyNjZGW3-37" value="" style="endArrow=classic;html=1;rounded=0;" edge="1" parent="1">
          <mxGeometry width="50" height="50" relative="1" as="geometry">
            <mxPoint x="650" y="189.17000000000002" as="sourcePoint" />
            <mxPoint x="740" y="190" as="targetPoint" />
          </mxGeometry>
        </mxCell>
        <mxCell id="ST3ynC30ayqtAyNjZGW3-38" value="rx_active_flag" style="text;strokeColor=none;align=center;fillColor=none;html=1;verticalAlign=middle;whiteSpace=wrap;rounded=0;" vertex="1" parent="1">
          <mxGeometry x="650" y="160" width="90" height="30" as="geometry" />
        </mxCell>
        <mxCell id="ST3ynC30ayqtAyNjZGW3-39" value="" style="endArrow=classic;html=1;rounded=0;" edge="1" parent="1">
          <mxGeometry width="50" height="50" relative="1" as="geometry">
            <mxPoint x="650" y="100" as="sourcePoint" />
            <mxPoint x="740" y="100" as="targetPoint" />
          </mxGeometry>
        </mxCell>
        <mxCell id="ST3ynC30ayqtAyNjZGW3-40" value="error_flag [2:0]" style="text;strokeColor=none;align=center;fillColor=none;html=1;verticalAlign=middle;whiteSpace=wrap;rounded=0;" vertex="1" parent="1">
          <mxGeometry x="650" y="70" width="110" height="30" as="geometry" />
        </mxCell>
        <mxCell id="ST3ynC30ayqtAyNjZGW3-41" value="+1" style="rounded=0;whiteSpace=wrap;html=1;" vertex="1" parent="1">
          <mxGeometry x="110" y="460" width="90" height="140" as="geometry" />
        </mxCell>
        <mxCell id="ST3ynC30ayqtAyNjZGW3-42" value="DFF" style="rounded=0;whiteSpace=wrap;html=1;" vertex="1" parent="1">
          <mxGeometry x="290" y="460" width="90" height="140" as="geometry" />
        </mxCell>
        <mxCell id="ST3ynC30ayqtAyNjZGW3-43" value="" style="triangle;whiteSpace=wrap;html=1;shadow=1;" vertex="1" parent="1">
          <mxGeometry x="290" y="580" width="10" height="20" as="geometry" />
        </mxCell>
        <mxCell id="ST3ynC30ayqtAyNjZGW3-44" value="" style="endArrow=classic;html=1;rounded=0;" edge="1" parent="1">
          <mxGeometry width="50" height="50" relative="1" as="geometry">
            <mxPoint x="200" y="480" as="sourcePoint" />
            <mxPoint x="290" y="480" as="targetPoint" />
          </mxGeometry>
        </mxCell>
        <mxCell id="ST3ynC30ayqtAyNjZGW3-45" value="" style="endArrow=classic;html=1;rounded=0;" edge="1" parent="1">
          <mxGeometry width="50" height="50" relative="1" as="geometry">
            <mxPoint x="230" y="590" as="sourcePoint" />
            <mxPoint x="290" y="589.58" as="targetPoint" />
          </mxGeometry>
        </mxCell>
        <mxCell id="ST3ynC30ayqtAyNjZGW3-46" value="clk" style="text;strokeColor=none;align=center;fillColor=none;html=1;verticalAlign=middle;whiteSpace=wrap;rounded=0;" vertex="1" parent="1">
          <mxGeometry x="220" y="560" width="60" height="30" as="geometry" />
        </mxCell>
        <mxCell id="ST3ynC30ayqtAyNjZGW3-47" value="=" style="rounded=0;whiteSpace=wrap;html=1;" vertex="1" parent="1">
          <mxGeometry x="450" y="460" width="90" height="140" as="geometry" />
        </mxCell>
        <mxCell id="ST3ynC30ayqtAyNjZGW3-48" value="" style="endArrow=classic;html=1;rounded=0;entryX=-0.028;entryY=0.151;entryDx=0;entryDy=0;entryPerimeter=0;" edge="1" parent="1" target="ST3ynC30ayqtAyNjZGW3-47">
          <mxGeometry width="50" height="50" relative="1" as="geometry">
            <mxPoint x="380" y="480" as="sourcePoint" />
            <mxPoint x="425" y="480" as="targetPoint" />
          </mxGeometry>
        </mxCell>
        <mxCell id="ST3ynC30ayqtAyNjZGW3-49" value="register" style="rounded=0;whiteSpace=wrap;html=1;" vertex="1" parent="1">
          <mxGeometry y="470" width="70" height="20" as="geometry" />
        </mxCell>
        <mxCell id="ST3ynC30ayqtAyNjZGW3-50" value="" style="endArrow=classic;html=1;rounded=0;" edge="1" parent="1">
          <mxGeometry width="50" height="50" relative="1" as="geometry">
            <mxPoint x="20" y="400" as="sourcePoint" />
            <mxPoint x="19.58" y="470" as="targetPoint" />
          </mxGeometry>
        </mxCell>
        <mxCell id="ST3ynC30ayqtAyNjZGW3-51" value="" style="endArrow=none;html=1;rounded=0;" edge="1" parent="1">
          <mxGeometry width="50" height="50" relative="1" as="geometry">
            <mxPoint x="20" y="400" as="sourcePoint" />
            <mxPoint x="420" y="400" as="targetPoint" />
          </mxGeometry>
        </mxCell>
        <mxCell id="ST3ynC30ayqtAyNjZGW3-52" value="" style="endArrow=none;html=1;rounded=0;" edge="1" parent="1">
          <mxGeometry width="50" height="50" relative="1" as="geometry">
            <mxPoint x="420" y="480" as="sourcePoint" />
            <mxPoint x="420" y="400" as="targetPoint" />
          </mxGeometry>
        </mxCell>
        <mxCell id="ST3ynC30ayqtAyNjZGW3-53" value="" style="endArrow=classic;html=1;rounded=0;exitX=1;exitY=0.5;exitDx=0;exitDy=0;exitPerimeter=0;" edge="1" parent="1" source="ST3ynC30ayqtAyNjZGW3-49">
          <mxGeometry width="50" height="50" relative="1" as="geometry">
            <mxPoint x="75" y="479.58000000000004" as="sourcePoint" />
            <mxPoint x="110" y="479.58000000000004" as="targetPoint" />
          </mxGeometry>
        </mxCell>
        <mxCell id="ST3ynC30ayqtAyNjZGW3-54" value="" style="endArrow=classic;html=1;rounded=0;" edge="1" parent="1">
          <mxGeometry width="50" height="50" relative="1" as="geometry">
            <mxPoint x="599.88" y="610" as="sourcePoint" />
            <mxPoint x="599.88" y="680" as="targetPoint" />
          </mxGeometry>
        </mxCell>
        <mxCell id="ST3ynC30ayqtAyNjZGW3-55" value="" style="shape=trapezoid;perimeter=trapezoidPerimeter;whiteSpace=wrap;html=1;fixedSize=1;rotation=90;" vertex="1" parent="1">
          <mxGeometry x="532.5" y="720" width="135" height="30" as="geometry" />
        </mxCell>
        <mxCell id="ST3ynC30ayqtAyNjZGW3-56" value="DFF" style="rounded=0;whiteSpace=wrap;html=1;" vertex="1" parent="1">
          <mxGeometry x="670" y="710" width="90" height="140" as="geometry" />
        </mxCell>
        <mxCell id="ST3ynC30ayqtAyNjZGW3-57" value="" style="endArrow=classic;html=1;rounded=0;" edge="1" parent="1">
          <mxGeometry width="50" height="50" relative="1" as="geometry">
            <mxPoint x="760" y="760" as="sourcePoint" />
            <mxPoint x="830" y="760" as="targetPoint" />
          </mxGeometry>
        </mxCell>
        <mxCell id="ST3ynC30ayqtAyNjZGW3-58" value="" style="endArrow=none;html=1;rounded=0;" edge="1" parent="1">
          <mxGeometry width="50" height="50" relative="1" as="geometry">
            <mxPoint x="540" y="479.58" as="sourcePoint" />
            <mxPoint x="600" y="479.58" as="targetPoint" />
          </mxGeometry>
        </mxCell>
        <mxCell id="ST3ynC30ayqtAyNjZGW3-59" value="" style="endArrow=none;html=1;rounded=0;" edge="1" parent="1">
          <mxGeometry width="50" height="50" relative="1" as="geometry">
            <mxPoint x="600" y="610" as="sourcePoint" />
            <mxPoint x="599.58" y="480" as="targetPoint" />
          </mxGeometry>
        </mxCell>
        <mxCell id="ST3ynC30ayqtAyNjZGW3-62" value="" style="endArrow=classic;html=1;rounded=0;" edge="1" parent="1">
          <mxGeometry width="50" height="50" relative="1" as="geometry">
            <mxPoint x="617.5" y="734.58" as="sourcePoint" />
            <mxPoint x="667.5" y="734.58" as="targetPoint" />
          </mxGeometry>
        </mxCell>
        <mxCell id="ST3ynC30ayqtAyNjZGW3-63" value="" style="endArrow=classic;html=1;rounded=0;" edge="1" parent="1">
          <mxGeometry width="50" height="50" relative="1" as="geometry">
            <mxPoint x="510" y="700" as="sourcePoint" />
            <mxPoint x="580" y="700" as="targetPoint" />
          </mxGeometry>
        </mxCell>
        <mxCell id="ST3ynC30ayqtAyNjZGW3-64" value="" style="endArrow=classic;html=1;rounded=0;" edge="1" parent="1">
          <mxGeometry width="50" height="50" relative="1" as="geometry">
            <mxPoint x="510" y="759.8" as="sourcePoint" />
            <mxPoint x="580" y="759.8" as="targetPoint" />
          </mxGeometry>
        </mxCell>
        <mxCell id="ST3ynC30ayqtAyNjZGW3-65" value="" style="triangle;whiteSpace=wrap;html=1;" vertex="1" parent="1">
          <mxGeometry x="475" y="740" width="25" height="40" as="geometry" />
        </mxCell>
        <mxCell id="ST3ynC30ayqtAyNjZGW3-66" value="" style="ellipse;whiteSpace=wrap;html=1;aspect=fixed;" vertex="1" parent="1">
          <mxGeometry x="500" y="755" width="10" height="10" as="geometry" />
        </mxCell>
        <mxCell id="ST3ynC30ayqtAyNjZGW3-68" value="" style="endArrow=none;html=1;rounded=0;" edge="1" parent="1">
          <mxGeometry width="50" height="50" relative="1" as="geometry">
            <mxPoint x="440" y="760" as="sourcePoint" />
            <mxPoint x="475" y="759.76" as="targetPoint" />
          </mxGeometry>
        </mxCell>
        <mxCell id="ST3ynC30ayqtAyNjZGW3-69" value="" style="endArrow=none;html=1;rounded=0;" edge="1" parent="1">
          <mxGeometry width="50" height="50" relative="1" as="geometry">
            <mxPoint x="439.76" y="760" as="sourcePoint" />
            <mxPoint x="440" y="700" as="targetPoint" />
          </mxGeometry>
        </mxCell>
        <mxCell id="ST3ynC30ayqtAyNjZGW3-70" value="" style="endArrow=none;html=1;rounded=0;" edge="1" parent="1">
          <mxGeometry width="50" height="50" relative="1" as="geometry">
            <mxPoint x="509.52" y="700" as="sourcePoint" />
            <mxPoint x="440" y="700" as="targetPoint" />
          </mxGeometry>
        </mxCell>
        <mxCell id="ST3ynC30ayqtAyNjZGW3-71" value="" style="endArrow=none;html=1;rounded=0;" edge="1" parent="1">
          <mxGeometry width="50" height="50" relative="1" as="geometry">
            <mxPoint x="440" y="880" as="sourcePoint" />
            <mxPoint x="439.76" y="755" as="targetPoint" />
          </mxGeometry>
        </mxCell>
        <mxCell id="ST3ynC30ayqtAyNjZGW3-72" value="" style="endArrow=none;html=1;rounded=0;" edge="1" parent="1">
          <mxGeometry width="50" height="50" relative="1" as="geometry">
            <mxPoint x="440" y="880" as="sourcePoint" />
            <mxPoint x="800" y="880" as="targetPoint" />
          </mxGeometry>
        </mxCell>
        <mxCell id="ST3ynC30ayqtAyNjZGW3-73" value="" style="endArrow=none;html=1;rounded=0;" edge="1" parent="1">
          <mxGeometry width="50" height="50" relative="1" as="geometry">
            <mxPoint x="800" y="880" as="sourcePoint" />
            <mxPoint x="800" y="760" as="targetPoint" />
          </mxGeometry>
        </mxCell>
        <mxCell id="ST3ynC30ayqtAyNjZGW3-76" value="" style="endArrow=none;html=1;rounded=0;strokeColor=#FF3333;" edge="1" parent="1">
          <mxGeometry width="50" height="50" relative="1" as="geometry">
            <mxPoint x="160" y="640" as="sourcePoint" />
            <mxPoint x="560" y="640" as="targetPoint" />
          </mxGeometry>
        </mxCell>
        <mxCell id="ST3ynC30ayqtAyNjZGW3-77" value="" style="endArrow=none;html=1;rounded=0;strokeColor=#FF3333;" edge="1" parent="1">
          <mxGeometry width="50" height="50" relative="1" as="geometry">
            <mxPoint x="560" y="640" as="sourcePoint" />
            <mxPoint x="560" y="480" as="targetPoint" />
          </mxGeometry>
        </mxCell>
        <mxCell id="ST3ynC30ayqtAyNjZGW3-78" value="" style="endArrow=classic;html=1;rounded=0;entryX=0.551;entryY=1.021;entryDx=0;entryDy=0;entryPerimeter=0;strokeColor=#FF3333;" edge="1" parent="1" target="ST3ynC30ayqtAyNjZGW3-41">
          <mxGeometry width="50" height="50" relative="1" as="geometry">
            <mxPoint x="159.76" y="640" as="sourcePoint" />
            <mxPoint x="159.76" y="610" as="targetPoint" />
          </mxGeometry>
        </mxCell>
        <mxCell id="ST3ynC30ayqtAyNjZGW3-79" value="" style="endArrow=classic;html=1;rounded=0;" edge="1" parent="1">
          <mxGeometry width="50" height="50" relative="1" as="geometry">
            <mxPoint x="400" y="580" as="sourcePoint" />
            <mxPoint x="450" y="580" as="targetPoint" />
          </mxGeometry>
        </mxCell>
        <mxCell id="ST3ynC30ayqtAyNjZGW3-81" value="" style="endArrow=none;html=1;rounded=0;" edge="1" parent="1">
          <mxGeometry width="50" height="50" relative="1" as="geometry">
            <mxPoint x="400" y="820" as="sourcePoint" />
            <mxPoint x="400" y="580" as="targetPoint" />
          </mxGeometry>
        </mxCell>
        <mxCell id="ST3ynC30ayqtAyNjZGW3-82" value="" style="shape=trapezoid;perimeter=trapezoidPerimeter;whiteSpace=wrap;html=1;fixedSize=1;rotation=90;" vertex="1" parent="1">
          <mxGeometry x="75" y="805" width="200" height="30" as="geometry" />
        </mxCell>
        <mxCell id="ST3ynC30ayqtAyNjZGW3-83" value="" style="endArrow=none;html=1;rounded=0;exitX=0.5;exitY=0;exitDx=0;exitDy=0;" edge="1" parent="1" source="ST3ynC30ayqtAyNjZGW3-82">
          <mxGeometry width="50" height="50" relative="1" as="geometry">
            <mxPoint x="190" y="814.58" as="sourcePoint" />
            <mxPoint x="400" y="820" as="targetPoint" />
          </mxGeometry>
        </mxCell>
        <mxCell id="ST3ynC30ayqtAyNjZGW3-84" value="" style="endArrow=classic;html=1;rounded=0;" edge="1" parent="1">
          <mxGeometry width="50" height="50" relative="1" as="geometry">
            <mxPoint x="180" y="690" as="sourcePoint" />
            <mxPoint x="180" y="730" as="targetPoint" />
          </mxGeometry>
        </mxCell>
        <mxCell id="ST3ynC30ayqtAyNjZGW3-85" value="" style="endArrow=classic;html=1;rounded=0;" edge="1" parent="1">
          <mxGeometry width="50" height="50" relative="1" as="geometry">
            <mxPoint x="80" y="754" as="sourcePoint" />
            <mxPoint x="160" y="754.17" as="targetPoint" />
          </mxGeometry>
        </mxCell>
        <mxCell id="ST3ynC30ayqtAyNjZGW3-86" value="" style="endArrow=classic;html=1;rounded=0;" edge="1" parent="1">
          <mxGeometry width="50" height="50" relative="1" as="geometry">
            <mxPoint x="80" y="800" as="sourcePoint" />
            <mxPoint x="160" y="800.17" as="targetPoint" />
          </mxGeometry>
        </mxCell>
        <mxCell id="ST3ynC30ayqtAyNjZGW3-87" value="" style="endArrow=classic;html=1;rounded=0;" edge="1" parent="1">
          <mxGeometry width="50" height="50" relative="1" as="geometry">
            <mxPoint x="80" y="850" as="sourcePoint" />
            <mxPoint x="160" y="850.17" as="targetPoint" />
          </mxGeometry>
        </mxCell>
        <mxCell id="ST3ynC30ayqtAyNjZGW3-88" value="" style="endArrow=classic;html=1;rounded=0;" edge="1" parent="1">
          <mxGeometry width="50" height="50" relative="1" as="geometry">
            <mxPoint x="80" y="890" as="sourcePoint" />
            <mxPoint x="160" y="890.17" as="targetPoint" />
          </mxGeometry>
        </mxCell>
        <mxCell id="ST3ynC30ayqtAyNjZGW3-89" value="baud_rate&amp;nbsp;&lt;span style=&quot;background-color: initial;&quot;&gt;[1:0]&lt;/span&gt;" style="text;strokeColor=none;align=center;fillColor=none;html=1;verticalAlign=middle;whiteSpace=wrap;rounded=0;" vertex="1" parent="1">
          <mxGeometry x="180" y="690" width="110" height="30" as="geometry" />
        </mxCell>
        <mxCell id="ST3ynC30ayqtAyNjZGW3-90" value="10417" style="text;strokeColor=none;align=center;fillColor=none;html=1;verticalAlign=middle;whiteSpace=wrap;rounded=0;" vertex="1" parent="1">
          <mxGeometry x="75" y="720" width="60" height="30" as="geometry" />
        </mxCell>
        <mxCell id="ST3ynC30ayqtAyNjZGW3-91" value="5208" style="text;strokeColor=none;align=center;fillColor=none;html=1;verticalAlign=middle;whiteSpace=wrap;rounded=0;" vertex="1" parent="1">
          <mxGeometry x="75" y="765" width="60" height="30" as="geometry" />
        </mxCell>
        <mxCell id="ST3ynC30ayqtAyNjZGW3-92" value="2604" style="text;strokeColor=none;align=center;fillColor=none;html=1;verticalAlign=middle;whiteSpace=wrap;rounded=0;" vertex="1" parent="1">
          <mxGeometry x="75" y="820" width="60" height="30" as="geometry" />
        </mxCell>
        <mxCell id="ST3ynC30ayqtAyNjZGW3-93" value="1302" style="text;strokeColor=none;align=center;fillColor=none;html=1;verticalAlign=middle;whiteSpace=wrap;rounded=0;" vertex="1" parent="1">
          <mxGeometry x="75" y="860" width="60" height="30" as="geometry" />
        </mxCell>
        <mxCell id="ST3ynC30ayqtAyNjZGW3-94" value="" style="triangle;whiteSpace=wrap;html=1;shadow=1;" vertex="1" parent="1">
          <mxGeometry x="670" y="830" width="10" height="20" as="geometry" />
        </mxCell>
        <mxCell id="ST3ynC30ayqtAyNjZGW3-95" value="" style="endArrow=classic;html=1;rounded=0;" edge="1" parent="1">
          <mxGeometry width="50" height="50" relative="1" as="geometry">
            <mxPoint x="600" y="840" as="sourcePoint" />
            <mxPoint x="670" y="839.58" as="targetPoint" />
          </mxGeometry>
        </mxCell>
        <mxCell id="ST3ynC30ayqtAyNjZGW3-96" value="clk" style="text;strokeColor=none;align=center;fillColor=none;html=1;verticalAlign=middle;whiteSpace=wrap;rounded=0;" vertex="1" parent="1">
          <mxGeometry x="595" y="805" width="60" height="30" as="geometry" />
        </mxCell>
        <mxCell id="ST3ynC30ayqtAyNjZGW3-97" value="baud_clk" style="text;strokeColor=none;align=center;fillColor=none;html=1;verticalAlign=middle;whiteSpace=wrap;rounded=0;" vertex="1" parent="1">
          <mxGeometry x="760" y="725" width="60" height="30" as="geometry" />
        </mxCell>
      </root>
    </mxGraphModel>
  </diagram>
  <diagram id="0IeEcEZkjc3BBIHzXhBf" name="Page-2">
    <mxGraphModel dx="1674" dy="772" grid="1" gridSize="10" guides="1" tooltips="1" connect="1" arrows="1" fold="1" page="1" pageScale="1" pageWidth="850" pageHeight="1100" math="0" shadow="0">
      <root>
        <mxCell id="0" />
        <mxCell id="1" parent="0" />
        <mxCell id="hAHRc4_BI7Kz1KH6arIp-52" value="+1" style="rounded=0;whiteSpace=wrap;html=1;" vertex="1" parent="1">
          <mxGeometry x="120" y="80" width="90" height="140" as="geometry" />
        </mxCell>
        <mxCell id="hAHRc4_BI7Kz1KH6arIp-53" value="DFF" style="rounded=0;whiteSpace=wrap;html=1;" vertex="1" parent="1">
          <mxGeometry x="300" y="80" width="90" height="140" as="geometry" />
        </mxCell>
        <mxCell id="hAHRc4_BI7Kz1KH6arIp-54" value="" style="triangle;whiteSpace=wrap;html=1;shadow=1;" vertex="1" parent="1">
          <mxGeometry x="300" y="200" width="10" height="20" as="geometry" />
        </mxCell>
        <mxCell id="hAHRc4_BI7Kz1KH6arIp-55" value="" style="endArrow=classic;html=1;rounded=0;" edge="1" parent="1">
          <mxGeometry width="50" height="50" relative="1" as="geometry">
            <mxPoint x="210" y="100" as="sourcePoint" />
            <mxPoint x="300" y="100" as="targetPoint" />
          </mxGeometry>
        </mxCell>
        <mxCell id="hAHRc4_BI7Kz1KH6arIp-56" value="" style="endArrow=classic;html=1;rounded=0;" edge="1" parent="1">
          <mxGeometry width="50" height="50" relative="1" as="geometry">
            <mxPoint x="240" y="210" as="sourcePoint" />
            <mxPoint x="300" y="209.58000000000004" as="targetPoint" />
          </mxGeometry>
        </mxCell>
        <mxCell id="hAHRc4_BI7Kz1KH6arIp-57" value="clk" style="text;strokeColor=none;align=center;fillColor=none;html=1;verticalAlign=middle;whiteSpace=wrap;rounded=0;" vertex="1" parent="1">
          <mxGeometry x="230" y="180" width="60" height="30" as="geometry" />
        </mxCell>
        <mxCell id="hAHRc4_BI7Kz1KH6arIp-58" value="=" style="rounded=0;whiteSpace=wrap;html=1;" vertex="1" parent="1">
          <mxGeometry x="460" y="80" width="90" height="140" as="geometry" />
        </mxCell>
        <mxCell id="hAHRc4_BI7Kz1KH6arIp-59" value="" style="endArrow=classic;html=1;rounded=0;entryX=-0.028;entryY=0.151;entryDx=0;entryDy=0;entryPerimeter=0;" edge="1" parent="1" target="hAHRc4_BI7Kz1KH6arIp-58">
          <mxGeometry width="50" height="50" relative="1" as="geometry">
            <mxPoint x="390" y="100" as="sourcePoint" />
            <mxPoint x="435" y="100" as="targetPoint" />
          </mxGeometry>
        </mxCell>
        <mxCell id="hAHRc4_BI7Kz1KH6arIp-60" value="register" style="rounded=0;whiteSpace=wrap;html=1;" vertex="1" parent="1">
          <mxGeometry x="10" y="90" width="70" height="20" as="geometry" />
        </mxCell>
        <mxCell id="hAHRc4_BI7Kz1KH6arIp-61" value="" style="endArrow=classic;html=1;rounded=0;" edge="1" parent="1">
          <mxGeometry width="50" height="50" relative="1" as="geometry">
            <mxPoint x="30" y="20" as="sourcePoint" />
            <mxPoint x="29.58" y="90" as="targetPoint" />
          </mxGeometry>
        </mxCell>
        <mxCell id="hAHRc4_BI7Kz1KH6arIp-62" value="" style="endArrow=none;html=1;rounded=0;" edge="1" parent="1">
          <mxGeometry width="50" height="50" relative="1" as="geometry">
            <mxPoint x="30" y="20" as="sourcePoint" />
            <mxPoint x="430" y="20" as="targetPoint" />
          </mxGeometry>
        </mxCell>
        <mxCell id="hAHRc4_BI7Kz1KH6arIp-63" value="" style="endArrow=none;html=1;rounded=0;" edge="1" parent="1">
          <mxGeometry width="50" height="50" relative="1" as="geometry">
            <mxPoint x="430" y="100" as="sourcePoint" />
            <mxPoint x="430" y="20" as="targetPoint" />
          </mxGeometry>
        </mxCell>
        <mxCell id="hAHRc4_BI7Kz1KH6arIp-64" value="" style="endArrow=classic;html=1;rounded=0;exitX=1;exitY=0.5;exitDx=0;exitDy=0;exitPerimeter=0;" edge="1" parent="1" source="hAHRc4_BI7Kz1KH6arIp-60">
          <mxGeometry width="50" height="50" relative="1" as="geometry">
            <mxPoint x="85" y="99.58000000000004" as="sourcePoint" />
            <mxPoint x="120" y="99.58000000000004" as="targetPoint" />
          </mxGeometry>
        </mxCell>
        <mxCell id="hAHRc4_BI7Kz1KH6arIp-65" value="" style="endArrow=classic;html=1;rounded=0;" edge="1" parent="1">
          <mxGeometry width="50" height="50" relative="1" as="geometry">
            <mxPoint x="609.88" y="230" as="sourcePoint" />
            <mxPoint x="609.88" y="300" as="targetPoint" />
          </mxGeometry>
        </mxCell>
        <mxCell id="hAHRc4_BI7Kz1KH6arIp-66" value="" style="shape=trapezoid;perimeter=trapezoidPerimeter;whiteSpace=wrap;html=1;fixedSize=1;rotation=90;" vertex="1" parent="1">
          <mxGeometry x="542.5" y="340" width="135" height="30" as="geometry" />
        </mxCell>
        <mxCell id="hAHRc4_BI7Kz1KH6arIp-67" value="DFF" style="rounded=0;whiteSpace=wrap;html=1;" vertex="1" parent="1">
          <mxGeometry x="680" y="330" width="90" height="140" as="geometry" />
        </mxCell>
        <mxCell id="hAHRc4_BI7Kz1KH6arIp-68" value="" style="endArrow=classic;html=1;rounded=0;" edge="1" parent="1">
          <mxGeometry width="50" height="50" relative="1" as="geometry">
            <mxPoint x="770" y="380" as="sourcePoint" />
            <mxPoint x="840" y="380" as="targetPoint" />
          </mxGeometry>
        </mxCell>
        <mxCell id="hAHRc4_BI7Kz1KH6arIp-69" value="" style="endArrow=none;html=1;rounded=0;" edge="1" parent="1">
          <mxGeometry width="50" height="50" relative="1" as="geometry">
            <mxPoint x="550" y="99.57999999999998" as="sourcePoint" />
            <mxPoint x="610" y="99.57999999999998" as="targetPoint" />
          </mxGeometry>
        </mxCell>
        <mxCell id="hAHRc4_BI7Kz1KH6arIp-70" value="" style="endArrow=none;html=1;rounded=0;" edge="1" parent="1">
          <mxGeometry width="50" height="50" relative="1" as="geometry">
            <mxPoint x="610" y="230" as="sourcePoint" />
            <mxPoint x="609.58" y="100" as="targetPoint" />
          </mxGeometry>
        </mxCell>
        <mxCell id="hAHRc4_BI7Kz1KH6arIp-71" value="" style="endArrow=classic;html=1;rounded=0;" edge="1" parent="1">
          <mxGeometry width="50" height="50" relative="1" as="geometry">
            <mxPoint x="627.5" y="354.58000000000004" as="sourcePoint" />
            <mxPoint x="677.5" y="354.58000000000004" as="targetPoint" />
          </mxGeometry>
        </mxCell>
        <mxCell id="hAHRc4_BI7Kz1KH6arIp-72" value="" style="endArrow=classic;html=1;rounded=0;" edge="1" parent="1">
          <mxGeometry width="50" height="50" relative="1" as="geometry">
            <mxPoint x="520" y="320" as="sourcePoint" />
            <mxPoint x="590" y="320" as="targetPoint" />
          </mxGeometry>
        </mxCell>
        <mxCell id="hAHRc4_BI7Kz1KH6arIp-73" value="" style="endArrow=classic;html=1;rounded=0;" edge="1" parent="1">
          <mxGeometry width="50" height="50" relative="1" as="geometry">
            <mxPoint x="520" y="379.79999999999995" as="sourcePoint" />
            <mxPoint x="590" y="379.79999999999995" as="targetPoint" />
          </mxGeometry>
        </mxCell>
        <mxCell id="hAHRc4_BI7Kz1KH6arIp-74" value="" style="triangle;whiteSpace=wrap;html=1;" vertex="1" parent="1">
          <mxGeometry x="485" y="360" width="25" height="40" as="geometry" />
        </mxCell>
        <mxCell id="hAHRc4_BI7Kz1KH6arIp-75" value="" style="ellipse;whiteSpace=wrap;html=1;aspect=fixed;" vertex="1" parent="1">
          <mxGeometry x="510" y="375" width="10" height="10" as="geometry" />
        </mxCell>
        <mxCell id="hAHRc4_BI7Kz1KH6arIp-76" value="" style="endArrow=none;html=1;rounded=0;" edge="1" parent="1">
          <mxGeometry width="50" height="50" relative="1" as="geometry">
            <mxPoint x="450" y="380" as="sourcePoint" />
            <mxPoint x="485" y="379.76" as="targetPoint" />
          </mxGeometry>
        </mxCell>
        <mxCell id="hAHRc4_BI7Kz1KH6arIp-77" value="" style="endArrow=none;html=1;rounded=0;" edge="1" parent="1">
          <mxGeometry width="50" height="50" relative="1" as="geometry">
            <mxPoint x="449.76" y="380" as="sourcePoint" />
            <mxPoint x="450" y="320" as="targetPoint" />
          </mxGeometry>
        </mxCell>
        <mxCell id="hAHRc4_BI7Kz1KH6arIp-78" value="" style="endArrow=none;html=1;rounded=0;" edge="1" parent="1">
          <mxGeometry width="50" height="50" relative="1" as="geometry">
            <mxPoint x="519.52" y="320" as="sourcePoint" />
            <mxPoint x="450" y="320" as="targetPoint" />
          </mxGeometry>
        </mxCell>
        <mxCell id="hAHRc4_BI7Kz1KH6arIp-79" value="" style="endArrow=none;html=1;rounded=0;" edge="1" parent="1">
          <mxGeometry width="50" height="50" relative="1" as="geometry">
            <mxPoint x="450" y="500" as="sourcePoint" />
            <mxPoint x="449.76" y="375" as="targetPoint" />
          </mxGeometry>
        </mxCell>
        <mxCell id="hAHRc4_BI7Kz1KH6arIp-80" value="" style="endArrow=none;html=1;rounded=0;" edge="1" parent="1">
          <mxGeometry width="50" height="50" relative="1" as="geometry">
            <mxPoint x="450" y="500" as="sourcePoint" />
            <mxPoint x="810" y="500" as="targetPoint" />
          </mxGeometry>
        </mxCell>
        <mxCell id="hAHRc4_BI7Kz1KH6arIp-81" value="" style="endArrow=none;html=1;rounded=0;" edge="1" parent="1">
          <mxGeometry width="50" height="50" relative="1" as="geometry">
            <mxPoint x="810" y="500" as="sourcePoint" />
            <mxPoint x="810" y="380" as="targetPoint" />
          </mxGeometry>
        </mxCell>
        <mxCell id="hAHRc4_BI7Kz1KH6arIp-82" value="" style="endArrow=none;html=1;rounded=0;strokeColor=#FF3333;" edge="1" parent="1">
          <mxGeometry width="50" height="50" relative="1" as="geometry">
            <mxPoint x="170" y="260" as="sourcePoint" />
            <mxPoint x="570" y="260" as="targetPoint" />
          </mxGeometry>
        </mxCell>
        <mxCell id="hAHRc4_BI7Kz1KH6arIp-83" value="" style="endArrow=none;html=1;rounded=0;strokeColor=#FF3333;" edge="1" parent="1">
          <mxGeometry width="50" height="50" relative="1" as="geometry">
            <mxPoint x="570" y="260" as="sourcePoint" />
            <mxPoint x="570" y="100" as="targetPoint" />
          </mxGeometry>
        </mxCell>
        <mxCell id="hAHRc4_BI7Kz1KH6arIp-84" value="" style="endArrow=classic;html=1;rounded=0;entryX=0.551;entryY=1.021;entryDx=0;entryDy=0;entryPerimeter=0;strokeColor=#FF3333;" edge="1" parent="1" target="hAHRc4_BI7Kz1KH6arIp-52">
          <mxGeometry width="50" height="50" relative="1" as="geometry">
            <mxPoint x="169.76" y="260" as="sourcePoint" />
            <mxPoint x="169.76" y="230" as="targetPoint" />
          </mxGeometry>
        </mxCell>
        <mxCell id="hAHRc4_BI7Kz1KH6arIp-85" value="" style="endArrow=classic;html=1;rounded=0;" edge="1" parent="1">
          <mxGeometry width="50" height="50" relative="1" as="geometry">
            <mxPoint x="410" y="200" as="sourcePoint" />
            <mxPoint x="460" y="200" as="targetPoint" />
          </mxGeometry>
        </mxCell>
        <mxCell id="hAHRc4_BI7Kz1KH6arIp-86" value="" style="endArrow=none;html=1;rounded=0;" edge="1" parent="1">
          <mxGeometry width="50" height="50" relative="1" as="geometry">
            <mxPoint x="410" y="440" as="sourcePoint" />
            <mxPoint x="410" y="200" as="targetPoint" />
          </mxGeometry>
        </mxCell>
        <mxCell id="hAHRc4_BI7Kz1KH6arIp-87" value="" style="shape=trapezoid;perimeter=trapezoidPerimeter;whiteSpace=wrap;html=1;fixedSize=1;rotation=90;" vertex="1" parent="1">
          <mxGeometry x="85" y="425" width="200" height="30" as="geometry" />
        </mxCell>
        <mxCell id="hAHRc4_BI7Kz1KH6arIp-88" value="" style="endArrow=none;html=1;rounded=0;exitX=0.5;exitY=0;exitDx=0;exitDy=0;" edge="1" parent="1" source="hAHRc4_BI7Kz1KH6arIp-87">
          <mxGeometry width="50" height="50" relative="1" as="geometry">
            <mxPoint x="200" y="434.58000000000004" as="sourcePoint" />
            <mxPoint x="410" y="440" as="targetPoint" />
          </mxGeometry>
        </mxCell>
        <mxCell id="hAHRc4_BI7Kz1KH6arIp-89" value="" style="endArrow=classic;html=1;rounded=0;" edge="1" parent="1">
          <mxGeometry width="50" height="50" relative="1" as="geometry">
            <mxPoint x="190" y="310" as="sourcePoint" />
            <mxPoint x="190" y="350" as="targetPoint" />
          </mxGeometry>
        </mxCell>
        <mxCell id="hAHRc4_BI7Kz1KH6arIp-90" value="" style="endArrow=classic;html=1;rounded=0;" edge="1" parent="1">
          <mxGeometry width="50" height="50" relative="1" as="geometry">
            <mxPoint x="90" y="374" as="sourcePoint" />
            <mxPoint x="170" y="374.16999999999996" as="targetPoint" />
          </mxGeometry>
        </mxCell>
        <mxCell id="hAHRc4_BI7Kz1KH6arIp-91" value="" style="endArrow=classic;html=1;rounded=0;" edge="1" parent="1">
          <mxGeometry width="50" height="50" relative="1" as="geometry">
            <mxPoint x="90" y="420" as="sourcePoint" />
            <mxPoint x="170" y="420.16999999999996" as="targetPoint" />
          </mxGeometry>
        </mxCell>
        <mxCell id="hAHRc4_BI7Kz1KH6arIp-92" value="" style="endArrow=classic;html=1;rounded=0;" edge="1" parent="1">
          <mxGeometry width="50" height="50" relative="1" as="geometry">
            <mxPoint x="90" y="470" as="sourcePoint" />
            <mxPoint x="170" y="470.16999999999996" as="targetPoint" />
          </mxGeometry>
        </mxCell>
        <mxCell id="hAHRc4_BI7Kz1KH6arIp-93" value="" style="endArrow=classic;html=1;rounded=0;" edge="1" parent="1">
          <mxGeometry width="50" height="50" relative="1" as="geometry">
            <mxPoint x="90" y="510" as="sourcePoint" />
            <mxPoint x="170" y="510.16999999999996" as="targetPoint" />
          </mxGeometry>
        </mxCell>
        <mxCell id="hAHRc4_BI7Kz1KH6arIp-94" value="baud_rate&amp;nbsp;&lt;span style=&quot;background-color: initial;&quot;&gt;[1:0]&lt;/span&gt;" style="text;strokeColor=none;align=center;fillColor=none;html=1;verticalAlign=middle;whiteSpace=wrap;rounded=0;" vertex="1" parent="1">
          <mxGeometry x="190" y="310" width="110" height="30" as="geometry" />
        </mxCell>
        <mxCell id="hAHRc4_BI7Kz1KH6arIp-95" value="651" style="text;strokeColor=none;align=center;fillColor=none;html=1;verticalAlign=middle;whiteSpace=wrap;rounded=0;" vertex="1" parent="1">
          <mxGeometry x="85" y="340" width="60" height="30" as="geometry" />
        </mxCell>
        <mxCell id="hAHRc4_BI7Kz1KH6arIp-96" value="326" style="text;strokeColor=none;align=center;fillColor=none;html=1;verticalAlign=middle;whiteSpace=wrap;rounded=0;" vertex="1" parent="1">
          <mxGeometry x="85" y="385" width="60" height="30" as="geometry" />
        </mxCell>
        <mxCell id="hAHRc4_BI7Kz1KH6arIp-97" value="163" style="text;strokeColor=none;align=center;fillColor=none;html=1;verticalAlign=middle;whiteSpace=wrap;rounded=0;" vertex="1" parent="1">
          <mxGeometry x="85" y="440" width="60" height="30" as="geometry" />
        </mxCell>
        <mxCell id="hAHRc4_BI7Kz1KH6arIp-98" value="81" style="text;strokeColor=none;align=center;fillColor=none;html=1;verticalAlign=middle;whiteSpace=wrap;rounded=0;" vertex="1" parent="1">
          <mxGeometry x="85" y="480" width="60" height="30" as="geometry" />
        </mxCell>
        <mxCell id="hAHRc4_BI7Kz1KH6arIp-99" value="" style="triangle;whiteSpace=wrap;html=1;shadow=1;" vertex="1" parent="1">
          <mxGeometry x="680" y="450" width="10" height="20" as="geometry" />
        </mxCell>
        <mxCell id="hAHRc4_BI7Kz1KH6arIp-100" value="" style="endArrow=classic;html=1;rounded=0;" edge="1" parent="1">
          <mxGeometry width="50" height="50" relative="1" as="geometry">
            <mxPoint x="610" y="460" as="sourcePoint" />
            <mxPoint x="680" y="459.58000000000004" as="targetPoint" />
          </mxGeometry>
        </mxCell>
        <mxCell id="hAHRc4_BI7Kz1KH6arIp-101" value="clk" style="text;strokeColor=none;align=center;fillColor=none;html=1;verticalAlign=middle;whiteSpace=wrap;rounded=0;" vertex="1" parent="1">
          <mxGeometry x="605" y="425" width="60" height="30" as="geometry" />
        </mxCell>
        <mxCell id="hAHRc4_BI7Kz1KH6arIp-102" value="baud_clk" style="text;strokeColor=none;align=center;fillColor=none;html=1;verticalAlign=middle;whiteSpace=wrap;rounded=0;" vertex="1" parent="1">
          <mxGeometry x="770" y="345" width="60" height="30" as="geometry" />
        </mxCell>
      </root>
    </mxGraphModel>
  </diagram>
</mxfile>
